<?xml version="1.0" encoding="utf-8"?>
<!-- Generator: Adobe Illustrator 24.0.3, SVG Export Plug-In . SVG Version: 6.00 Build 0)  -->
<svg version="1.1" id="Layer_1" xmlns="http://www.w3.org/2000/svg" xmlns:xlink="http://www.w3.org/1999/xlink" x="0px" y="0px"
	 viewBox="0 0 1228 313" style="enable-background:new 0 0 1228 313;" xml:space="preserve">
<style type="text/css">
	.st0{fill:#FFFFFF;}
</style>
<g id="Page-1">
	<g id="_x30_50---Corn" transform="translate(-1)">
		<path id="Shape" class="st0" d="M21.4,280.5c1,0.9,2.3,1.5,3.6,1.5c0.1,0,0.3,0,0.4,0c0.7,0,1.4-0.1,2.2-0.2h0h0
			c7.9-0.7,19.8-2.8,25.7-8.8c4.3-4.3,6.3-8.8,6-13.2c-0.3-3.8-2.3-7.6-6-11.2s-7.5-5.7-11.2-6c-4.4-0.4-8.9,1.7-13.2,6
			c-5.9,5.9-8,17.8-8.8,25.7v0c-0.1,0.8-0.1,1.5-0.2,2.2C19.9,278,20.4,279.4,21.4,280.5L21.4,280.5z M25.3,280.6
			c-1.1,0.1-2.2-0.3-3-1.1c-0.8-0.8-1.2-1.9-1.1-3c0-0.5,0.1-1.1,0.1-1.6c1.4,0.1,2.8,0.8,3.8,1.8c1,1,1.7,2.3,1.8,3.8
			C26.4,280.5,25.9,280.6,25.3,280.6z M29.9,249.5c3.7-3.7,7.5-5.6,11.3-5.6c0.3,0,0.6,0,0.9,0c3.5,0.3,7,2.2,10.4,5.6
			c3.4,3.4,5.3,6.9,5.6,10.4c0.3,4-1.6,8.1-5.6,12.2c-5.4,5.4-16.5,7.5-24.1,8.3c-0.1-1.7-0.9-3.4-2.2-4.6c-1.2-1.2-2.8-2-4.6-2.2
			C22.3,266,24.4,254.9,29.9,249.5L29.9,249.5z"/>
		<path id="Shape_1_" class="st0" d="M50.3,251.6c0.3,0.2,0.7,0.2,0.9,0c0.3-0.3,0.3-0.7,0-0.9c-0.4-0.4-0.7-0.7-1.1-1.1
			c-0.3-0.2-0.7-0.2-0.9,0.1c-0.2,0.3-0.2,0.7,0.1,0.9C49.6,250.9,49.9,251.3,50.3,251.6z"/>
		<path id="Shape_2_" class="st0" d="M31.5,251.8c0.2,0,0.3-0.1,0.5-0.2c5-5,9.5-6,14.3-3.2c0.3,0.2,0.7,0.1,0.9-0.2
			s0.1-0.7-0.2-0.9c-5.3-3.1-10.5-2-15.9,3.4c-0.2,0.2-0.2,0.5-0.1,0.7C31,251.7,31.3,251.8,31.5,251.8L31.5,251.8z"/>
		<path id="Shape_3_" class="st0" d="M38.3,251.2c-0.2,0.1-0.4,0.3-0.5,0.5c0,0.2,0,0.5,0.2,0.6c0.2,0.2,0.5,0.2,0.7,0.1
			c2.8-1.1,5.7-0.3,8.4,2.4l0,0c2.7,2.7,3.5,5.5,2.4,8.3c-0.1,0.3,0,0.7,0.4,0.8c0.3,0.1,0.7,0,0.8-0.4c0.9-2.3,1.1-5.9-2.7-9.7
			c0,0,0,0,0,0C44.1,250.1,40.6,250.3,38.3,251.2L38.3,251.2z"/>
	</g>
</g>
<g id="Page-1_1_">
	<g id="_x30_50---Corn_1_" transform="translate(-1)">
		<path id="Shape_7_" class="st0" d="M135.7,59c0-0.9-0.4-1.8-1-2.4c-0.1-0.1-0.1-0.1-0.2-0.2c-0.4-0.3-0.7-0.6-1.1-1l0,0l0,0
			c-4.1-3.4-10.8-8.1-16.4-8.1c-4.1,0-7.2,1.2-9.1,3.4c-1.7,1.9-2.5,4.7-2.5,8.2s0.8,6.3,2.5,8.2c1.9,2.3,5,3.4,9.1,3.4
			c5.6,0,12.3-4.7,16.4-8.1l0,0c0.4-0.3,0.8-0.7,1.1-1C135.2,60.9,135.7,60,135.7,59L135.7,59z M133.9,57c0.6,0.5,0.9,1.2,0.9,1.9
			s-0.3,1.4-0.9,1.9c-0.3,0.2-0.6,0.5-0.8,0.7c-0.6-0.7-1-1.7-0.9-2.6c0-1,0.3-1.9,0.9-2.6C133.3,56.6,133.6,56.8,133.9,57z
			 M116.9,69.7c-3.6,0-6.3-0.9-8.1-2.7c-0.1-0.1-0.3-0.3-0.4-0.4c-1.5-1.8-2.3-4.3-2.3-7.6c0-3.3,0.8-5.8,2.3-7.6
			c1.8-2.1,4.6-3.1,8.5-3.1c5.2,0,11.4,4.3,15.4,7.5c-0.8,0.9-1.2,2-1.1,3.2c0,1.2,0.4,2.3,1.1,3.2
			C128.3,65.4,122.1,69.7,116.9,69.7L116.9,69.7z"/>
		<path id="Shape_6_" class="st0" d="M108.2,59c0-0.2-0.2-0.4-0.4-0.4c-0.2,0-0.4,0.2-0.4,0.4c0,0.4,0,0.7,0,1
			c0,0.2,0.2,0.4,0.5,0.4s0.4-0.2,0.4-0.5C108.2,59.6,108.2,59.3,108.2,59z"/>
		<path id="Shape_5_" class="st0" d="M117.2,67.8c-0.1-0.1-0.2-0.1-0.3-0.1c-4.7,0-7.4-1.7-8.3-5.3c-0.1-0.2-0.3-0.4-0.5-0.3
			s-0.4,0.3-0.3,0.5c1,4,4,5.9,9.2,5.9c0.2,0,0.3-0.1,0.4-0.3C117.4,68.1,117.3,67.9,117.2,67.8L117.2,67.8z"/>
		<path id="Shape_4_" class="st0" d="M113.7,64.9c0.1,0.1,0.3,0.1,0.5,0s0.2-0.3,0.2-0.4c0-0.2-0.1-0.3-0.3-0.4
			c-1.9-0.8-2.8-2.6-2.8-5.1l0,0c0-2.6,1-4.3,2.8-5.1c0.2-0.1,0.3-0.4,0.2-0.6s-0.4-0.3-0.6-0.2c-1.5,0.7-3.3,2.3-3.3,5.9
			c0,0,0,0,0,0C110.4,62.6,112.2,64.2,113.7,64.9L113.7,64.9z"/>
	</g>
</g>
<g id="Page-1_2_">
	<g id="_x30_50---Corn_2_" transform="translate(-1)">
		<path id="Shape_11_" class="st0" d="M219.7,254.8c0.6-0.6,1-1.5,1-2.4c0-0.1,0-0.2,0-0.3c0-0.5-0.1-1-0.1-1.5v0v0
			c-0.5-5.3-1.9-13.3-5.9-17.3c-2.9-2.9-5.9-4.3-8.9-4c-2.5,0.2-5.1,1.6-7.6,4c-2.5,2.5-3.8,5-4,7.6c-0.2,3,1.1,6,4,8.9
			c4,4,12,5.4,17.3,5.9h0c0.5,0,1,0.1,1.5,0.1C218,255.9,219,255.5,219.7,254.8L219.7,254.8z M219.8,252.2c0.1,0.7-0.2,1.5-0.7,2
			s-1.3,0.8-2,0.7c-0.4,0-0.7-0.1-1.1-0.1c0.1-1,0.5-1.9,1.2-2.5c0.7-0.7,1.6-1.1,2.5-1.2C219.8,251.5,219.8,251.8,219.8,252.2z
			 M198.9,249.2c-2.5-2.5-3.8-5.1-3.8-7.6c0-0.2,0-0.4,0-0.6c0.2-2.3,1.5-4.7,3.8-7c2.3-2.3,4.7-3.6,7-3.8c2.7-0.2,5.5,1.1,8.2,3.8
			c3.7,3.7,5.1,11.1,5.6,16.3c-1.2,0.1-2.3,0.6-3.1,1.5c-0.8,0.8-1.4,1.9-1.5,3.1C210,254.2,202.5,252.8,198.9,249.2L198.9,249.2z"
			/>
		<path id="Shape_10_" class="st0" d="M200.3,235.4c0.2-0.2,0.2-0.4,0-0.6c-0.2-0.2-0.4-0.2-0.6,0c-0.3,0.3-0.5,0.5-0.7,0.8
			c-0.2,0.2-0.1,0.5,0,0.6s0.5,0.1,0.6,0C199.8,235.9,200.1,235.6,200.3,235.4z"/>
		<path id="Shape_9_" class="st0" d="M200.4,248c0-0.1,0-0.2-0.1-0.3c-3.4-3.4-4-6.4-2.2-9.6c0.1-0.2,0.1-0.5-0.2-0.6
			c-0.2-0.1-0.5-0.1-0.6,0.2c-2.1,3.6-1.3,7.1,2.3,10.7c0.1,0.1,0.3,0.2,0.5,0.1S200.4,248.2,200.4,248L200.4,248z"/>
		<path id="Shape_8_" class="st0" d="M200,243.5c0,0.2,0.2,0.3,0.3,0.3s0.3,0,0.4-0.2s0.1-0.3,0.1-0.5c-0.7-1.9-0.2-3.8,1.6-5.6l0,0
			c1.8-1.8,3.7-2.3,5.6-1.6c0.2,0.1,0.5,0,0.6-0.3c0.1-0.2,0-0.5-0.3-0.6c-1.6-0.6-4-0.7-6.6,1.8c0,0,0,0,0,0
			C199.2,239.5,199.4,241.9,200,243.5L200,243.5z"/>
	</g>
</g>
<g id="Page-1_3_">
	<g id="_x30_50---Corn_3_" transform="translate(-1)">
		<path id="Shape_15_" class="st0" d="M812,250.8c0-0.9-0.4-1.8-1-2.4c-0.1-0.1-0.1-0.1-0.2-0.2c-0.4-0.3-0.7-0.6-1.1-1l0,0l0,0
			c-4.1-3.4-10.8-8.1-16.4-8.1c-4.1,0-7.2,1.2-9.1,3.4c-1.7,1.9-2.5,4.7-2.5,8.2c0,3.5,0.8,6.3,2.5,8.2c1.9,2.3,5,3.4,9.1,3.4
			c5.6,0,12.3-4.7,16.4-8.1l0,0c0.4-0.3,0.8-0.7,1.1-1C811.5,252.7,812,251.7,812,250.8L812,250.8z M810.2,248.8
			c0.6,0.5,0.9,1.2,0.9,1.9s-0.3,1.4-0.9,1.9c-0.3,0.2-0.6,0.5-0.8,0.7c-0.6-0.7-1-1.7-0.9-2.6c0-1,0.3-1.9,0.9-2.6
			C809.7,248.4,809.9,248.6,810.2,248.8z M793.2,261.5c-3.6,0-6.3-0.9-8.1-2.7c-0.1-0.1-0.3-0.3-0.4-0.4c-1.5-1.8-2.3-4.3-2.3-7.6
			s0.8-5.8,2.3-7.6c1.8-2.1,4.6-3.1,8.5-3.1c5.2,0,11.4,4.3,15.4,7.5c-0.8,0.9-1.2,2-1.1,3.2c0,1.2,0.4,2.3,1.1,3.2
			C804.7,257.2,798.4,261.5,793.2,261.5L793.2,261.5z"/>
		<path id="Shape_14_" class="st0" d="M784.5,250.8c0-0.2-0.2-0.4-0.4-0.4s-0.4,0.2-0.4,0.4c0,0.4,0,0.7,0,1c0,0.2,0.2,0.4,0.5,0.4
			c0.2,0,0.4-0.2,0.4-0.5C784.5,251.4,784.5,251.1,784.5,250.8z"/>
		<path id="Shape_13_" class="st0" d="M793.5,259.6c-0.1-0.1-0.2-0.1-0.3-0.1c-4.7,0-7.4-1.7-8.3-5.3c-0.1-0.2-0.3-0.4-0.5-0.3
			s-0.4,0.3-0.3,0.5c1,4,4,5.9,9.2,5.9c0.2,0,0.3-0.1,0.4-0.3C793.7,259.9,793.7,259.7,793.5,259.6L793.5,259.6z"/>
		<path id="Shape_12_" class="st0" d="M790,256.7c0.1,0.1,0.3,0.1,0.5,0c0.1-0.1,0.2-0.3,0.2-0.4c0-0.2-0.1-0.3-0.3-0.4
			c-1.9-0.8-2.8-2.6-2.8-5.1l0,0c0-2.6,1-4.3,2.8-5.1c0.2-0.1,0.3-0.4,0.2-0.6c-0.1-0.2-0.4-0.3-0.6-0.2c-1.5,0.7-3.3,2.3-3.3,5.9
			c0,0,0,0,0,0C786.7,254.4,788.5,256,790,256.7L790,256.7z"/>
	</g>
</g>
<g id="Page-1_5_">
	<g id="_x30_50---Corn_5_" transform="translate(-1)">
		<path id="Shape_23_" class="st0" d="M779.6,39.3c-1.3-1.3-3.1-2-5-2c-0.2,0-0.3,0-0.5,0c-1,0.1-2,0.2-3,0.3h0h0
			c-10.8,1-27.3,3.9-35.4,12.1c-6,6-8.7,12.1-8.3,18.2c0.4,5.2,3.2,10.4,8.3,15.5s10.3,7.9,15.5,8.3c6.1,0.5,12.2-2.3,18.2-8.3
			c8.2-8.2,11.1-24.6,12.1-35.5v0c0.1-1.1,0.2-2.1,0.3-3C781.7,42.8,781,40.8,779.6,39.3L779.6,39.3z M774.2,39.1
			c1.5-0.1,3,0.4,4.1,1.5c1.1,1.1,1.6,2.6,1.5,4.1c-0.1,0.7-0.1,1.5-0.2,2.3c-2-0.2-3.8-1-5.2-2.5c-1.4-1.4-2.3-3.2-2.5-5.2
			C772.7,39.2,773.5,39.2,774.2,39.1z M768,82.1c-5.2,5.2-10.4,7.8-15.6,7.8c-0.4,0-0.8,0-1.2,0c-4.8-0.4-9.6-3-14.4-7.7
			c-4.8-4.8-7.4-9.6-7.7-14.4c-0.4-5.6,2.2-11.2,7.7-16.8c7.5-7.5,22.8-10.4,33.3-11.5c0.2,2.4,1.3,4.6,3,6.3c1.7,1.7,3.9,2.8,6.3,3
			C778.3,59.3,775.5,74.6,768,82.1L768,82.1z"/>
		<path id="Shape_22_" class="st0" d="M739.8,79.1c-0.4-0.3-0.9-0.3-1.3,0c-0.3,0.3-0.4,0.9,0,1.3c0.5,0.5,1,1,1.5,1.5
			c0.4,0.3,0.9,0.3,1.3-0.1c0.3-0.4,0.3-0.9-0.1-1.3C740.8,80.1,740.3,79.6,739.8,79.1z"/>
		<path id="Shape_21_" class="st0" d="M765.7,78.9c-0.2,0-0.5,0.1-0.6,0.3c-6.9,6.9-13.1,8.3-19.7,4.4c-0.4-0.2-1-0.1-1.2,0.3
			s-0.1,1,0.3,1.2c7.3,4.3,14.5,2.7,21.9-4.7c0.3-0.3,0.3-0.6,0.2-1C766.4,79.1,766,78.9,765.7,78.9L765.7,78.9z"/>
		<path id="Shape_20_" class="st0" d="M756.4,79.8c0.3-0.1,0.6-0.4,0.6-0.7c0.1-0.3-0.1-0.7-0.3-0.9s-0.6-0.3-0.9-0.1
			c-3.9,1.5-7.8,0.3-11.5-3.4l0,0c-3.7-3.7-4.8-7.6-3.3-11.5c0.2-0.5-0.1-1-0.5-1.2c-0.5-0.2-1,0.1-1.2,0.5
			c-1.2,3.2-1.5,8.1,3.8,13.5c0,0,0,0,0,0C748.3,81.3,753.2,81,756.4,79.8L756.4,79.8z"/>
	</g>
</g>
<g id="Page-1_6_">
	<g id="_x30_50---Corn_6_" transform="translate(-1)">
		<path id="Shape_27_" class="st0" d="M734.7,204c0-1.3-0.5-2.6-1.5-3.5c-0.1-0.1-0.2-0.2-0.3-0.3c-0.5-0.4-1.1-0.9-1.7-1.4l0,0l0,0
			c-6-4.9-15.7-11.7-23.8-11.7c-6,0-10.4,1.7-13.3,5c-2.4,2.8-3.6,6.8-3.6,11.9c0,5.1,1.2,9.1,3.6,11.9c2.8,3.3,7.3,5,13.3,5
			c8.2,0,17.9-6.8,23.8-11.7l0,0c0.6-0.5,1.1-1,1.7-1.4C734,206.8,734.7,205.4,734.7,204L734.7,204z M732.1,201.2
			c0.8,0.7,1.3,1.7,1.3,2.8s-0.5,2.1-1.3,2.8c-0.4,0.3-0.8,0.7-1.2,1.1c-0.9-1.1-1.4-2.4-1.4-3.8c0-1.4,0.4-2.8,1.4-3.8
			C731.3,200.5,731.7,200.9,732.1,201.2z M707.4,219.6c-5.2,0-9.1-1.3-11.7-3.9c-0.2-0.2-0.4-0.4-0.6-0.6c-2.2-2.6-3.3-6.3-3.3-11.1
			s1.1-8.5,3.3-11.1c2.6-3,6.7-4.5,12.3-4.5c7.5,0,16.6,6.2,22.4,11c-1.1,1.3-1.7,3-1.7,4.7c0,1.7,0.6,3.4,1.7,4.7
			C724.1,213.4,715,219.6,707.4,219.6L707.4,219.6z"/>
		<path id="Shape_26_" class="st0" d="M694.8,204c0-0.4-0.3-0.6-0.6-0.6c-0.4,0-0.6,0.3-0.6,0.6c0,0.5,0,1,0,1.5
			c0,0.4,0.3,0.6,0.7,0.6s0.6-0.3,0.6-0.7C694.8,205,694.8,204.5,694.8,204z"/>
		<path id="Shape_25_" class="st0" d="M707.9,216.8c-0.1-0.1-0.3-0.2-0.5-0.2c-6.9,0-10.7-2.4-12.1-7.7c-0.1-0.3-0.4-0.5-0.8-0.5
			s-0.5,0.4-0.5,0.8c1.5,5.8,5.9,8.6,13.3,8.6c0.3,0,0.5-0.2,0.6-0.4C708.1,217.3,708.1,217,707.9,216.8L707.9,216.8z"/>
		<path id="Shape_24_" class="st0" d="M702.8,212.6c0.2,0.1,0.5,0.1,0.7,0c0.2-0.1,0.3-0.4,0.3-0.6s-0.2-0.4-0.4-0.5
			c-2.7-1.2-4.1-3.7-4.1-7.5l0,0c0-3.7,1.4-6.2,4.1-7.4c0.3-0.1,0.5-0.5,0.3-0.9c-0.1-0.3-0.5-0.5-0.9-0.3c-2.2,1-4.9,3.3-4.9,8.6
			c0,0,0,0,0,0C697.9,209.3,700.6,211.6,702.8,212.6L702.8,212.6z"/>
	</g>
</g>
<g id="Page-1_4_">
	<g id="_x30_50---Corn_4_" transform="translate(-1)">
		<path id="Shape_19_" class="st0" d="M1202.5,60.8c0.6-0.6,1-1.5,1-2.4c0-0.1,0-0.2,0-0.3c0-0.5-0.1-1-0.1-1.5v0v0
			c-0.5-5.3-1.9-13.3-5.9-17.3c-2.9-2.9-5.9-4.3-8.9-4c-2.5,0.2-5.1,1.6-7.6,4c-2.5,2.5-3.8,5-4,7.6c-0.2,3,1.1,6,4,8.9
			c4,4,12,5.4,17.3,5.9h0c0.5,0,1,0.1,1.5,0.1C1200.8,61.9,1201.8,61.5,1202.5,60.8L1202.5,60.8z M1202.6,58.2
			c0.1,0.7-0.2,1.5-0.7,2c-0.5,0.5-1.3,0.8-2,0.7c-0.4,0-0.7-0.1-1.1-0.1c0.1-1,0.5-1.9,1.2-2.5c0.7-0.7,1.6-1.1,2.5-1.2
			C1202.5,57.5,1202.6,57.8,1202.6,58.2z M1181.6,55.2c-2.5-2.5-3.8-5.1-3.8-7.6c0-0.2,0-0.4,0-0.6c0.2-2.3,1.5-4.7,3.8-7
			s4.7-3.6,7-3.8c2.7-0.2,5.5,1.1,8.2,3.8c3.7,3.7,5.1,11.1,5.6,16.3c-1.2,0.1-2.3,0.6-3.1,1.5c-0.8,0.8-1.4,1.9-1.5,3.1
			C1192.7,60.2,1185.3,58.8,1181.6,55.2L1181.6,55.2z"/>
		<path id="Shape_18_" class="st0" d="M1183.1,41.4c0.2-0.2,0.2-0.4,0-0.6c-0.2-0.2-0.4-0.2-0.6,0c-0.3,0.3-0.5,0.5-0.7,0.8
			c-0.2,0.2-0.1,0.5,0,0.6s0.5,0.1,0.6,0C1182.6,41.9,1182.8,41.6,1183.1,41.4z"/>
		<path id="Shape_17_" class="st0" d="M1183.2,54c0-0.1,0-0.2-0.1-0.3c-3.4-3.4-4-6.4-2.2-9.6c0.1-0.2,0.1-0.5-0.2-0.6
			c-0.2-0.1-0.5-0.1-0.6,0.2c-2.1,3.6-1.3,7.1,2.3,10.7c0.1,0.1,0.3,0.2,0.5,0.1C1183.1,54.4,1183.2,54.2,1183.2,54L1183.2,54z"/>
		<path id="Shape_16_" class="st0" d="M1182.7,49.5c0,0.2,0.2,0.3,0.3,0.3s0.3,0,0.4-0.2c0.1-0.1,0.1-0.3,0.1-0.5
			c-0.7-1.9-0.2-3.8,1.6-5.6l0,0c1.8-1.8,3.7-2.3,5.6-1.6c0.2,0.1,0.5,0,0.6-0.3s0-0.5-0.3-0.6c-1.6-0.6-4-0.7-6.6,1.8c0,0,0,0,0,0
			C1182,45.5,1182.2,47.9,1182.7,49.5L1182.7,49.5z"/>
	</g>
</g>
<g id="Page-1_7_">
	<g id="_x30_50---Corn_7_" transform="translate(-1)">
		<path id="Shape_31_" class="st0" d="M1067.5,102.3c0.9,0.9,2.2,1.4,3.5,1.4c0.1,0,0.2,0,0.4,0c0.7,0,1.4-0.1,2.2-0.2h0h0
			c7.7-0.7,19.3-2.8,25.1-8.6c4.2-4.2,6.2-8.6,5.9-12.9c-0.3-3.7-2.3-7.4-5.9-11c-3.6-3.6-7.3-5.6-11-5.9c-4.3-0.3-8.7,1.6-12.9,5.9
			c-5.8,5.8-7.8,17.5-8.6,25.2v0c-0.1,0.8-0.1,1.5-0.2,2.2C1066,99.9,1066.5,101.3,1067.5,102.3L1067.5,102.3z M1071.4,102.5
			c-1.1,0.1-2.1-0.3-2.9-1.1c-0.8-0.8-1.1-1.8-1.1-2.9c0-0.5,0.1-1.1,0.1-1.6c1.4,0.1,2.7,0.7,3.7,1.8c1,1,1.6,2.3,1.8,3.7
			C1072.4,102.4,1071.9,102.4,1071.4,102.5z M1075.8,72c3.7-3.7,7.4-5.5,11-5.5c0.3,0,0.6,0,0.9,0c3.4,0.3,6.8,2.1,10.2,5.5
			c3.4,3.4,5.2,6.8,5.5,10.2c0.3,3.9-1.5,8-5.5,11.9c-5.3,5.3-16.1,7.4-23.6,8.1c-0.1-1.7-0.9-3.3-2.1-4.5c-1.2-1.2-2.8-2-4.5-2.1
			C1068.4,88.1,1070.4,77.3,1075.8,72L1075.8,72z"/>
		<path id="Shape_30_" class="st0" d="M1095.8,74.1c0.3,0.2,0.7,0.2,0.9,0c0.2-0.2,0.3-0.6,0-0.9c-0.4-0.4-0.7-0.7-1.1-1
			c-0.3-0.2-0.7-0.2-0.9,0.1c-0.2,0.3-0.2,0.7,0.1,0.9C1095.1,73.4,1095.4,73.7,1095.8,74.1z"/>
		<path id="Shape_29_" class="st0" d="M1077.4,74.3c0.2,0,0.3-0.1,0.5-0.2c4.9-4.9,9.3-5.9,14-3.1c0.3,0.2,0.7,0.1,0.9-0.2
			c0.2-0.3,0.1-0.7-0.2-0.9c-5.2-3-10.3-1.9-15.5,3.3c-0.2,0.2-0.2,0.5-0.1,0.7C1076.9,74.1,1077.1,74.3,1077.4,74.3L1077.4,74.3z"
			/>
		<path id="Shape_28_" class="st0" d="M1084,73.6c-0.2,0.1-0.4,0.3-0.4,0.5s0,0.5,0.2,0.6c0.2,0.1,0.4,0.2,0.7,0.1
			c2.8-1,5.5-0.2,8.2,2.4l0,0c2.6,2.6,3.4,5.4,2.4,8.2c-0.1,0.3,0,0.7,0.4,0.8c0.3,0.1,0.7,0,0.8-0.4c0.9-2.3,1.1-5.8-2.7-9.5
			c0,0,0,0,0,0C1089.8,72.5,1086.3,72.8,1084,73.6L1084,73.6z"/>
	</g>
</g>
</svg>
