<svg width="150" height="94" viewBox="0 0 150 94" fill="none" xmlns="http://www.w3.org/2000/svg">
<circle cx="16" cy="78" r="16" fill="black"/>
<circle cx="41" cy="31" r="9" fill="black"/>
<g clip-path="url(#clip0)">
<path d="M118.8 17.6999C126.1 17.6999 132 23.6 132 30.9C132 35.8 136 39.6999 140.8 39.7C145.6 39.7 149.7 35.7 149.7 30.8C149.7 13.7999 135.9 -0.100049 118.8 -0.100051C101.8 -0.100052 87.9002 13.6999 87.9002 30.7999C87.9002 47.8999 101.8 61.6999 118.8 61.6999C123.7 61.6999 127.7 57.6999 127.7 52.8999C127.7 48.0999 123.7 44.0999 118.9 44.0999C111.6 44.0999 105.7 38.1999 105.7 30.8999C105.7 23.5999 111.6 17.6999 118.8 17.6999Z" fill="black"/>
</g>
<defs>
<clipPath id="clip0">
<rect width="61.7" height="61.7" fill="white" transform="translate(149.7 61.7) rotate(-180)"/>
</clipPath>
</defs>
</svg>
