<?xml version="1.0" encoding="utf-8"?>
<!-- Generator: Adobe Illustrator 24.0.3, SVG Export Plug-In . SVG Version: 6.00 Build 0)  -->
<svg version="1.1" id="Layer_1" xmlns="http://www.w3.org/2000/svg" xmlns:xlink="http://www.w3.org/1999/xlink" x="0px" y="0px"
	 viewBox="0 0 315.9 223.2" style="enable-background:new 0 0 315.9 223.2;" xml:space="preserve">
<circle cx="25.9" cy="25.9" r="25.9"/>
<path d="M252.7,124.1c15.2,15.2,15.2,39.7,0,54.9c-10.2,10.2-10,26.6,0,36.6c10,10,26.6,10,36.6,0c35.4-35.4,35.6-93,0-128.6
	c-35.4-35.4-93-35.6-128.6,0s-35.6,93,0,128.6c10.2,10.2,26.6,10,36.6,0c10-10,10-26.6,0-36.6c-15.2-15.2-15.2-39.7,0-54.9
	C212.9,108.9,237.7,109.1,252.7,124.1z"/>
</svg>
