<?xml version="1.0" encoding="utf-8"?>
<!-- Generator: Adobe Illustrator 24.0.3, SVG Export Plug-In . SVG Version: 6.00 Build 0)  -->
<svg version="1.1" id="Layer_1" xmlns="http://www.w3.org/2000/svg" xmlns:xlink="http://www.w3.org/1999/xlink" x="0px" y="0px"
	 viewBox="0 0 500 304.6" style="enable-background:new 0 0 500 304.6;" xml:space="preserve">
<circle cx="110.7" cy="239.7" r="65"/>
<circle cx="175.6" cy="95.6" r="25.9"/>
<path d="M409.4,52.1c21.5,0,38.8,17.4,38.8,38.8c0,14.4,11.8,25.9,25.9,25.9c14.1,0,25.9-11.8,25.9-25.9c0-50-40.6-90.9-90.9-90.9
	c-50,0-90.9,40.6-90.9,90.9s40.6,90.9,90.9,90.9c14.4,0,25.9-11.8,25.9-25.9c0-14.1-11.8-25.9-25.9-25.9
	c-21.5,0-38.8-17.4-38.8-38.8C370.6,69.4,388.2,52.1,409.4,52.1z"/>
</svg>
