<svg width="87" height="87" viewBox="0 0 87 87" fill="none" xmlns="http://www.w3.org/2000/svg">
<path d="M87 44.3819C87 42.6343 85.9629 41.0036 83.9209 39.5203C85.1583 38.3177 85.7932 37.0254 85.7932 35.662C85.7932 33.7489 84.5537 31.9748 82.1111 30.3829C82.0205 29.9887 81.8735 29.5997 81.6731 29.2175C82.6866 28.0022 83.2195 26.7548 83.2195 25.5153C83.2195 22.0347 79.2309 19.4178 71.3643 17.7371C64.6751 16.3081 55.2617 15.5527 44.1422 15.5527C33.7143 15.5527 23.8964 16.7047 16.4974 18.7965C8.55723 21.0406 4.36026 24.0845 4.36026 27.5987C4.36026 27.6196 4.36227 27.6406 4.36272 27.6616C3.23305 28.8216 2.6593 30.0601 2.6593 31.3497C2.6593 32.4468 3.07422 33.5048 3.89158 34.5091C1.30924 36.1347 0 37.9506 0 39.9203C0 42.0375 1.52585 43.9834 4.47358 45.6873C2.98611 46.9898 2.23077 48.3966 2.23077 49.8852C2.23077 51.6519 3.29061 53.3034 5.38039 54.8C5.38485 54.8431 5.38932 54.8863 5.39489 54.9292C3.6917 56.3096 2.82638 57.8113 2.82638 59.4016C2.82638 62.9155 7.02313 65.9592 14.9631 68.204C22.3621 70.2958 32.18 71.4478 42.6077 71.4478C53.0356 71.4478 62.853 70.2958 70.2523 68.204C78.1923 65.9592 82.389 62.9155 82.389 59.4016C82.389 59.2089 82.3725 59.0162 82.3462 58.8241C84.0449 57.4497 84.9185 55.9471 84.9185 54.3465C84.9185 52.8369 84.1428 51.4117 82.6139 50.0949C85.5246 48.3957 87 46.4783 87 44.3819ZM83.5624 35.6618C83.5624 37.9684 79.632 40.4564 73.0483 42.3175C65.8405 44.3551 56.2381 45.4772 46.0096 45.4772C35.9578 45.4772 26.4741 44.3881 19.3055 42.4103C15.5409 41.3717 12.6056 40.1233 10.7425 38.8152C18.0779 41.6835 29.6552 43.3959 42.4402 43.3959C52.8681 43.3959 62.6862 42.2439 70.0859 40.1521C76.7619 38.2649 80.7909 35.8126 81.9052 32.9913C82.816 33.7451 83.5624 34.6657 83.5624 35.6618ZM17.1042 20.9427C24.3114 18.9054 33.9137 17.7833 44.1422 17.7833C69.5955 17.7833 80.9887 21.6666 80.9887 25.5151C80.9887 27.9279 76.9687 30.9595 70.7477 33.2389C63.3985 35.9315 53.9498 37.4143 44.1422 37.4143C33.9137 37.4143 24.3114 36.2922 17.1042 34.2548C10.5212 32.3939 6.59103 29.9055 6.59103 27.5989C6.59103 25.2923 10.5212 22.8036 17.1042 20.9427ZM16.4974 36.4011C23.8964 38.4926 33.7143 39.6448 44.1422 39.6448C54.2048 39.6448 63.9263 38.1136 71.5149 35.3334C75.1035 34.0188 77.9511 32.505 79.9401 30.8962C79.9601 30.9856 79.9932 31.2868 79.9932 31.3499C79.9932 33.6565 76.0628 36.1447 69.4791 38.0056C62.2713 40.0432 52.6689 41.1653 42.4404 41.1653C27.639 41.1653 14.0956 38.7449 7.9373 34.9995C7.35485 34.6445 6.84489 34.2794 6.42127 33.9137C5.40515 33.0377 4.89007 32.1753 4.89007 31.3499C4.89007 30.9832 4.99625 30.6082 5.19903 30.2278C6.78712 32.6351 10.6131 34.7376 16.4974 36.4011ZM2.23077 39.9203C2.23077 38.6943 3.41642 37.3498 5.58205 36.0952C5.82186 36.2752 6.07416 36.4537 6.34275 36.629C7.24576 40.594 13.4935 43.121 18.7124 44.561C26.069 46.5903 35.7632 47.7079 46.0098 47.7079C55.2753 47.7079 64.0579 46.7978 71.0917 45.1276C64.726 47.7133 53.8088 49.7357 39.7815 49.7357C29.5532 49.7357 19.9509 48.6136 12.7437 46.576C6.16072 44.7151 2.23077 42.2269 2.23077 39.9203ZM6.66465 46.7933C7.31179 47.0811 8.00266 47.3606 8.7406 47.631C13.1185 52.8247 28.8068 56.428 47.2187 56.428C59.5368 56.428 71.1542 54.7523 78.5416 51.9821C76.9508 53.6456 73.5737 55.2783 68.8795 56.5886C61.6904 58.5954 52.1487 59.7006 42.0121 59.7006C26.7355 59.7006 13.0257 57.1746 7.08425 53.2652C5.88789 52.4787 4.46154 51.2537 4.46154 49.8852C4.46154 48.6797 5.56666 47.5844 6.66465 46.7933ZM69.6455 66.0574C62.4383 68.0949 52.836 69.217 42.6077 69.217C32.3794 69.217 22.777 68.0949 15.5701 66.0574C8.98732 64.1964 5.05738 61.7082 5.05738 59.4016C5.05738 58.5544 5.61239 57.7631 6.28631 57.1138C7.92815 59.4634 11.7196 61.5173 17.4908 63.1491C24.8898 65.2409 34.7076 66.3929 45.1354 66.3929C55.5633 66.3929 65.3814 65.2409 72.7811 63.1491C75.6583 62.3358 78.0415 61.4169 79.9142 60.4093C78.9661 62.4134 75.2782 64.465 69.6455 66.0574ZM72.1741 61.0024C64.9662 63.04 55.3639 64.1621 45.1354 64.1621C34.9069 64.1621 25.3047 63.04 18.0976 61.0024C13.7911 59.7849 10.6205 58.2992 8.94226 56.7713C16.1389 59.9542 28.5213 61.9313 42.0121 61.9313C59.4574 61.9313 78.0729 58.435 81.3037 51.9143C82.0682 52.6069 82.6881 53.4452 82.6881 54.3467C82.6879 56.6533 78.7575 59.1413 72.1741 61.0024ZM80.1919 48.8601C73.432 52.1523 60.7976 54.1972 47.2187 54.1972C38.4036 54.1972 29.8064 53.3321 23.0108 51.7615C20.4711 51.1743 18.2133 50.4922 16.3078 49.7484C23.0508 51.1875 31.2091 51.9665 39.7813 51.9665C58.8171 51.9665 74.6161 48.2043 78.5637 42.7788C79.9251 42.2069 81.0998 41.5996 82.0832 40.961C83.4198 41.8296 84.7695 43.0389 84.7695 44.3819C84.7692 45.8336 83.1439 47.424 80.1919 48.8601Z" fill="black"/>
<path d="M18.3568 31.4044C19.7381 30.0229 21.9862 30.0227 23.3675 31.4044C23.5855 31.6221 23.8708 31.731 24.1563 31.731C24.4419 31.731 24.7272 31.6221 24.9451 31.4044C25.3808 30.9687 25.3808 30.2625 24.9451 29.827C23.8538 28.7357 22.4038 28.1348 20.8621 28.1348C19.3207 28.1348 17.8707 28.7357 16.7794 29.827C16.3437 30.2627 16.3437 30.969 16.7794 31.4044C17.2148 31.8398 17.9209 31.8398 18.3568 31.4044Z" fill="black"/>
<path d="M49.4749 22.6979C50.8564 21.3164 53.1044 21.3164 54.4859 22.6979C54.7036 22.9156 54.9892 23.0245 55.2745 23.0245C55.5598 23.0245 55.8456 22.9156 56.0631 22.6979C56.4987 22.2623 56.4987 21.556 56.0631 21.1205C54.9718 20.0293 53.5218 19.4283 51.9803 19.4283C50.4388 19.4283 48.9888 20.0293 47.8976 21.1205C47.4619 21.5562 47.4619 22.2625 47.8976 22.6979C48.333 23.1334 49.0397 23.1334 49.4749 22.6979Z" fill="black"/>
<path d="M29.0294 26.2381C29.3149 26.2381 29.6002 26.1293 29.8182 25.9115C30.6665 25.0632 32.0472 25.063 32.8958 25.9115C33.3312 26.347 34.0377 26.3472 34.4731 25.9115C34.9088 25.4759 34.9088 24.7698 34.4731 24.3342C32.7548 22.6158 29.9589 22.616 28.2408 24.3342C27.8051 24.7698 27.8051 25.4761 28.2408 25.9115C28.4585 26.1293 28.7439 26.2381 29.0294 26.2381Z" fill="black"/>
<path d="M60.6021 30.5219C61.0139 30.1103 61.5602 29.8837 62.1409 29.8837C62.7216 29.8837 63.2683 30.1103 63.6795 30.5217C63.8974 30.7396 64.183 30.8485 64.4683 30.8485C64.7536 30.8485 65.0393 30.7396 65.2568 30.5219C65.6925 30.0862 65.6925 29.3802 65.2571 28.9445C64.4243 28.1115 63.3176 27.6529 62.1407 27.6529C60.9642 27.6529 59.8575 28.1115 59.0245 28.9445C58.5889 29.3802 58.5889 30.0862 59.0243 30.5219C59.4602 30.9576 60.1667 30.9573 60.6021 30.5219Z" fill="black"/>
<path d="M42.9407 34.361C43.3523 33.9494 43.8988 33.7228 44.4793 33.7228C45.0602 33.7228 45.6067 33.9494 46.0178 34.3608C46.2358 34.5787 46.5213 34.6876 46.8066 34.6876C47.0919 34.6876 47.3777 34.5787 47.5952 34.361C48.0309 33.9253 48.0309 33.2193 47.5954 32.7836C46.7627 31.9506 45.656 31.492 44.479 31.492C43.3025 31.492 42.1959 31.9506 41.3629 32.7836C40.9272 33.2193 40.9272 33.9255 41.3629 34.361C41.799 34.7967 42.505 34.7967 42.9407 34.361Z" fill="black"/>
</svg>
